<svg width="58" height="58" viewBox="0 0 58 58" fill="none" xmlns="http://www.w3.org/2000/svg">
<path d="M10.9863 48.6186L6.98486 3.72107H50.9684L46.9617 48.6115L28.9499 53.6052L10.9863 48.6186Z" fill="#1572B6"/>
<path d="M28.9771 49.7891L43.5325 45.7539L46.9567 7.39294H28.9771V49.7891Z" fill="#33A9DC"/>
<path d="M28.9771 23.659H36.2637L36.7661 18.0203H28.9771V12.5134H42.7843L42.6524 13.9904L41.3002 29.1658H28.9771V23.659V23.659Z" fill="white"/>
<path d="M29.0104 37.9598L28.9855 37.9669L22.8533 36.31L22.4613 31.9185H16.9331L17.7045 40.5645L28.9837 43.6965L29.0104 43.6893V37.9598V37.9598Z" fill="#EBEBEB"/>
<path d="M35.7951 28.9324L35.1323 36.3063L28.9912 37.9632V43.6927L40.2793 40.5643L40.363 39.6343L41.3197 28.9324H35.7951V28.9324Z" fill="white"/>
<path d="M28.9964 12.5134V18.0203H15.6952L15.5847 16.7821L15.3335 13.9904L15.2017 12.5134H28.9964V12.5134ZM28.9768 23.659V29.1658H22.9212L22.8108 27.9276L22.5614 25.1359L22.4295 23.659H28.9768V23.659Z" fill="#EBEBEB"/>
</svg>
