<svg width="34" height="51" viewBox="0 0 34 51" fill="none" xmlns="http://www.w3.org/2000/svg">
<g clip-path="url(#clip0_117_3)">
<path d="M8.95361 50.1689C13.4874 50.1689 17.167 46.4893 17.167 41.9556V33.7422H8.95361C4.41983 33.7422 0.740234 37.4218 0.740234 41.9556C0.740234 46.4893 4.41983 50.1689 8.95361 50.1689Z" fill="#0ACF83"/>
<path d="M0.740234 25.5284C0.740234 20.9947 4.41983 17.3151 8.95361 17.3151H17.167V33.7418H8.95361C4.41983 33.7418 0.740234 30.0622 0.740234 25.5284Z" fill="#A259FF"/>
<path d="M0.740234 9.1018C0.740234 4.56802 4.41983 0.888428 8.95361 0.888428H17.167V17.3152H8.95361C4.41983 17.3152 0.740234 13.6356 0.740234 9.1018Z" fill="#F24E1E"/>
<path d="M17.167 0.888428H25.3804C29.9141 0.888428 33.5937 4.56802 33.5937 9.1018C33.5937 13.6356 29.9141 17.3152 25.3804 17.3152H17.167V0.888428Z" fill="#FF7262"/>
<path d="M33.5937 25.5284C33.5937 30.0622 29.9141 33.7418 25.3804 33.7418C20.8466 33.7418 17.167 30.0622 17.167 25.5284C17.167 20.9947 20.8466 17.3151 25.3804 17.3151C29.9141 17.3151 33.5937 20.9947 33.5937 25.5284Z" fill="#1ABCFE"/>
</g>
<defs>
<clipPath id="clip0_117_3">
<rect width="32.8535" height="49.2802" fill="white" transform="translate(0.740234 0.888428)"/>
</clipPath>
</defs>
</svg>
