<svg width="59" height="59" viewBox="0 0 59 59" fill="none" xmlns="http://www.w3.org/2000/svg">
<path d="M52.9148 9.30546L42.4682 4.27597C41.8782 3.99152 41.2144 3.89765 40.5687 4.00738C39.923 4.1171 39.3274 4.42499 38.8645 4.88835L4.66731 36.0653C4.2524 36.4418 4.00404 36.9677 3.97686 37.5273C3.94967 38.0869 4.1459 38.6344 4.52237 39.0493C4.56767 39.0983 4.61296 39.1454 4.66188 39.1888L7.45382 41.7253C7.81865 42.0574 8.28825 42.2511 8.78106 42.273C9.27388 42.2948 9.75878 42.1434 10.1516 41.8449L51.3422 10.6099C51.6533 10.3738 52.0242 10.2293 52.413 10.1925C52.8018 10.1558 53.1932 10.2283 53.5431 10.4019C53.8929 10.5755 54.1874 10.8433 54.3933 11.1752C54.5992 11.5071 54.7083 11.8898 54.7085 12.2804V12.159C54.7085 11.5627 54.5401 10.9786 54.2228 10.4738C53.9055 9.969 53.4521 9.56402 52.9148 9.30546V9.30546Z" fill="#0065A9"/>
<path d="M52.9148 49.0556L42.4682 54.0869C41.878 54.3705 41.2144 54.464 40.5689 54.3543C39.9234 54.2446 39.3278 53.9372 38.8645 53.4745L4.66731 22.2957C4.2524 21.9192 4.00404 21.3933 3.97686 20.8337C3.94967 20.2741 4.1459 19.7266 4.52237 19.3117C4.56767 19.2628 4.61296 19.2157 4.66188 19.1722L7.45382 16.6357C7.81902 16.3023 8.28969 16.1077 8.78372 16.0858C9.27776 16.0639 9.76378 16.2163 10.157 16.5161L51.3422 47.7511C51.6533 47.9872 52.0242 48.1318 52.413 48.1685C52.8018 48.2053 53.1932 48.1328 53.5431 47.9592C53.8929 47.7855 54.1874 47.5177 54.3933 47.1859C54.5992 46.854 54.7083 46.4712 54.7085 46.0807V46.2111C54.7065 46.8058 54.5373 47.3879 54.2201 47.8909C53.9029 48.3939 53.4506 48.7975 52.9148 49.0556V49.0556Z" fill="#007ACC"/>
<path d="M42.468 54.0867C41.8779 54.3703 41.2143 54.4637 40.5688 54.3541C39.9233 54.2444 39.3277 53.937 38.8644 53.4743C39.1246 53.7311 39.4548 53.9054 39.8136 53.9753C40.1724 54.0453 40.5439 54.0077 40.8814 53.8675C41.219 53.7272 41.5077 53.4905 41.7113 53.1869C41.9149 52.8833 42.0244 52.5263 42.026 52.1608V6.19969C42.0263 5.83242 41.9176 5.47333 41.7136 5.16789C41.5097 4.86246 41.2196 4.62443 40.8803 4.48396C40.541 4.34349 40.1676 4.3069 39.8074 4.37882C39.4473 4.45074 39.1165 4.62794 38.8572 4.88797C39.3201 4.42477 39.9156 4.11686 40.5612 4.00683C41.2067 3.8968 41.8705 3.99008 42.4608 4.27377L52.9057 9.29601C53.4446 9.55328 53.8999 9.9577 54.2189 10.4626C54.5378 10.9675 54.7075 11.5523 54.7084 12.1496V46.2109C54.7085 46.8076 54.5401 47.3923 54.2224 47.8975C53.9047 48.4027 53.4508 48.8078 52.9129 49.0662L42.468 54.0867Z" fill="#1F9CF0"/>
</svg>
