<svg width="46" height="46" viewBox="0 0 46 46" fill="none" xmlns="http://www.w3.org/2000/svg">
<path d="M1.41379 22.6206C1.41379 26.7913 2.61551 30.6793 4.66551 33.931H40.5052C42.5552 30.6793 43.7569 26.7913 43.7569 22.6206C43.7569 18.45 42.5552 14.562 40.5052 11.3103H4.66551C2.61551 14.562 1.41379 18.45 1.41379 22.6206Z" fill="#F9F9F9"/>
<path d="M40.5759 11.3104C36.8293 5.37244 30.1845 1.41382 22.6207 1.41382C15.0569 1.41382 8.41208 5.37244 4.66553 11.3104H22.6207H40.5759ZM4.66553 33.9311C8.41208 39.869 15.0569 43.8276 22.6207 43.8276C30.1845 43.8276 36.8293 39.869 40.5759 33.9311H4.66553Z" fill="#B4D7EE"/>
<path d="M32.3052 22.4793L26.5086 22.2672V22.1965C27.4276 22.0552 28.1345 21.4896 29.1241 21.5603C30.3259 21.7017 31.0328 20.9948 31.4569 20.8534C31.9517 20.7121 32.2345 20.9948 32.2345 20.8534C32.3052 20.7121 31.9517 20.4293 31.2448 20.5C30.6086 20.5707 30.3965 21.1362 28.9121 20.9948C27.6397 20.9241 27.2155 21.4189 26.2965 21.4189V21.3483L31.5276 18.9448C31.5276 18.9448 31.669 18.8741 31.669 18.7327C31.5983 18.5914 31.4569 18.6621 31.4569 18.6621L26.1552 20.7827V20.7121C26.9328 20.2172 27.3569 19.4396 28.3465 19.1569C29.4776 18.8034 29.9017 17.9552 30.2552 17.6017C30.6086 17.2483 31.0328 17.4603 31.0328 17.3189C31.0328 17.1776 30.6086 17.0362 30.0431 17.3896C29.4776 17.7431 29.4776 18.3086 28.0638 18.7327C26.8621 19.0862 26.65 19.7224 25.8017 20.1465L25.731 20.0758L29.6896 15.8345C29.6896 15.8345 29.831 15.6931 29.7603 15.6224C29.6896 15.5517 29.5483 15.6931 29.5483 15.6931L25.3069 19.6517L25.2362 19.581C25.8017 18.8034 25.8724 17.9552 26.65 17.3189C27.569 16.5414 27.569 15.6224 27.781 15.1983C27.9931 14.7741 28.4172 14.7741 28.3465 14.6327C28.2759 14.4914 27.8517 14.5621 27.4276 15.0569C27.0034 15.6224 27.2155 16.1172 26.1552 17.0362C25.2362 17.8138 25.2362 18.5207 24.6707 19.1569C24.6707 19.1569 24.6 19.1569 24.6 19.0862L26.5793 13.6431C26.5793 13.6431 26.65 13.5017 26.5086 13.431C26.3672 13.3603 26.2965 13.5724 26.2965 13.5724L23.8931 18.8034H23.8224C24.0345 17.8845 23.8224 17.0362 24.2465 16.1879C24.8121 15.1276 24.4586 14.2086 24.4586 13.7845C24.5293 13.2896 24.8828 13.1483 24.8121 13.0776C24.7414 12.9362 24.3172 13.2189 24.1052 13.8552C23.9638 14.4914 24.3172 14.9155 23.681 16.1879C23.1155 17.3189 23.3983 17.8845 23.1155 18.7327H23.0448L22.8328 12.9362C22.8328 12.9362 22.8328 12.7241 22.6914 12.7241C22.55 12.7241 22.55 12.9362 22.55 12.9362L22.3379 18.7327H22.2672C22.1259 17.8138 21.5603 17.1069 21.631 16.1172C21.7724 14.9155 21.0655 14.2086 20.9241 13.7845C20.7828 13.3603 21.0655 13.0069 20.9241 13.0069C20.7828 12.9362 20.5 13.2896 20.5707 13.9965C20.6414 14.6327 21.2069 14.8448 21.0655 16.3293C20.9948 17.6017 21.4896 18.0258 21.4896 18.9448H21.419L19.0155 13.7138C19.0155 13.7138 18.9448 13.5724 18.8034 13.5724C18.6621 13.6431 18.7328 13.7845 18.7328 13.7845L20.7121 19.2276H20.6414C20.1465 18.45 19.369 18.0258 19.0862 17.0362C18.7328 15.9052 17.8845 15.481 17.531 15.1276C17.1776 14.7741 17.3896 14.35 17.2483 14.35C17.1069 14.35 16.9655 14.7741 17.319 15.3396C17.6724 15.9052 18.2379 15.9052 18.6621 17.3189C19.0155 18.5207 19.6517 18.7327 20.0759 19.581L20.0052 19.6517L15.7638 15.6931C15.7638 15.6931 15.6224 15.5517 15.5517 15.6224C15.481 15.6931 15.6224 15.8345 15.6224 15.8345L19.581 20.0758L19.5103 20.1465C18.7328 19.581 17.8845 19.5103 17.2483 18.7327C16.4707 17.8138 15.5517 17.8138 15.1276 17.6017C14.7034 17.3896 14.7034 16.9655 14.5621 17.0362C14.4207 17.1069 14.4914 17.531 14.9862 17.9552C15.5517 18.3793 16.0465 18.1672 16.9655 19.2276C17.7431 20.1465 18.45 20.1465 19.0862 20.7121C19.0862 20.7121 19.0862 20.7827 19.0155 20.7827L13.5724 18.8034C13.5724 18.8034 13.431 18.7327 13.3603 18.8741C13.2896 19.0155 13.5017 19.0862 13.5017 19.0862L18.7328 21.4896V21.5603C17.8138 21.3483 16.9655 21.5603 16.1172 21.1362C15.0569 20.5707 14.1379 20.9241 13.7138 20.9241C13.219 20.8534 13.0776 20.5 13.0069 20.5707C12.8655 20.6414 13.1483 21.0655 13.7845 21.2776C14.4207 21.4189 14.8448 21.0655 16.1172 21.7017C17.2483 22.2672 17.8138 21.9845 18.6621 22.2672V22.3379L12.8655 22.55C12.8655 22.55 12.6534 22.55 12.6534 22.6914C12.6534 22.8327 12.8655 22.8327 12.8655 22.8327L18.6621 23.0448V23.1155C17.7431 23.2569 17.0362 23.8224 16.0465 23.7517C14.8448 23.6103 14.1379 24.3172 13.7138 24.4586C13.219 24.6 12.9362 24.3172 12.9362 24.4586C12.8655 24.6 13.219 24.8827 13.9259 24.8121C14.6328 24.7414 14.7741 24.2465 16.2586 24.3172C17.531 24.3879 17.9552 23.8931 18.8741 23.8931V23.9638L13.6431 26.3672C13.6431 26.3672 13.5017 26.4379 13.5017 26.5793C13.5017 26.7207 13.7138 26.65 13.7138 26.65L19.1569 24.6707V24.7414C18.3793 25.2362 17.9552 26.0138 16.9655 26.2965C15.8345 26.65 15.4103 27.4983 15.0569 27.8517C14.7034 28.2052 14.2793 27.9931 14.2793 28.1345C14.2793 28.2758 14.7034 28.4172 15.269 28.0638C15.8345 27.7103 15.8345 27.1448 17.2483 26.7207C18.45 26.3672 18.6621 25.731 19.5103 25.3069L19.581 25.3776L15.6224 29.619C15.6224 29.619 15.481 29.7603 15.5517 29.831C15.6224 29.9017 15.7638 29.7603 15.7638 29.7603L20.0052 25.8017L20.0759 25.8724C19.5103 26.65 19.4396 27.4983 18.6621 28.1345C17.7431 28.9121 17.7431 29.831 17.531 30.2552C17.319 30.6793 16.8948 30.6793 16.9655 30.8207C17.0362 30.9621 17.4603 30.8914 17.8845 30.3965C18.3086 29.9017 18.0965 29.3362 19.1569 28.4172C20.0759 27.6396 20.0759 26.9327 20.6414 26.2965C20.6414 26.2965 20.7121 26.2965 20.7121 26.3672L18.7328 31.8103C18.7328 31.8103 18.6621 31.9517 18.8034 32.0224C18.9448 32.0931 19.0155 31.881 19.0155 31.881L21.419 26.65H21.4896C21.2776 27.569 21.4896 28.4172 21.0655 29.2655C20.5 30.3258 20.8534 31.2448 20.7828 31.6689C20.7121 32.1638 20.3586 32.3052 20.4293 32.3758C20.5 32.5172 20.9241 32.2345 21.1362 31.5983C21.2776 30.9621 20.9241 30.6086 21.5603 29.2655C22.1259 28.1345 21.8431 27.5689 22.1259 26.7207H22.1965L22.4086 32.5172C22.4086 32.5172 22.4086 32.7293 22.55 32.7293C22.6914 32.7293 22.6914 32.5172 22.6914 32.5172L22.9034 26.7207H22.9741C23.1155 27.6396 23.681 28.3465 23.6103 29.3362C23.469 30.5379 24.1759 31.2448 24.3172 31.6689C24.4586 32.1638 24.1759 32.4465 24.3172 32.4465C24.4586 32.5172 24.7414 32.1638 24.6707 31.4569C24.6 30.8207 24.0345 30.6086 24.1759 29.1241C24.2465 27.8517 23.7517 27.4276 23.7517 26.5086H23.8224L26.2259 31.7396C26.2259 31.7396 26.2965 31.881 26.4379 31.881C26.5793 31.8103 26.5086 31.6689 26.5086 31.6689L24.4586 26.1552H24.5293C25.0241 26.9327 25.8017 27.3569 26.0845 28.3465C26.4379 29.4776 27.2862 29.9017 27.6396 30.2552C27.9931 30.6086 27.781 31.0327 27.9224 31.0327C28.0638 31.0327 28.2052 30.6086 27.8517 30.0431C27.4983 29.4776 26.9328 29.4776 26.5086 28.0638C26.1552 26.8621 25.519 26.65 25.0948 25.8017L25.1655 25.731L29.4069 29.6896C29.4069 29.6896 29.5483 29.831 29.619 29.7603C29.6896 29.6896 29.5483 29.5483 29.5483 29.5483L25.5897 25.3069L25.6603 25.2362C26.4379 25.8017 27.2862 25.8724 27.9224 26.65C28.7 27.569 29.619 27.5689 30.0431 27.781C30.4672 27.9931 30.4672 28.4172 30.6086 28.3465C30.75 28.2758 30.6793 27.8517 30.1845 27.4276C29.619 27.0034 29.1241 27.2155 28.2052 26.1552C27.4276 25.2362 26.7207 25.2362 26.0845 24.6C26.0845 24.6 26.0845 24.5293 26.1552 24.5293L31.5983 26.5086C31.5983 26.5086 31.7396 26.5793 31.8103 26.4379C31.881 26.2965 31.669 26.2258 31.669 26.2258L26.4379 23.8224V23.7517C27.3569 23.9638 28.2052 23.7517 29.0534 24.1758C30.1138 24.7414 31.0328 24.3879 31.4569 24.3879C31.9517 24.4586 32.0931 24.8121 32.1638 24.7414C32.3052 24.6707 32.0224 24.2465 31.3862 24.0345C30.75 23.8931 30.3259 24.2465 29.0534 23.6103C27.9224 23.0448 27.3569 23.3276 26.5086 23.0448V22.9741L32.3052 22.7621C32.3052 22.7621 32.5172 22.7621 32.5172 22.6207C32.5172 22.4793 32.3052 22.4793 32.3052 22.4793Z" fill="#F6B40E"/>
<path d="M24.7414 22.1259C24.5293 21.9138 24.2466 21.7725 23.9638 21.7725C23.681 21.7725 23.469 21.9138 23.2569 22.1259C23.6103 22.4087 24.2466 22.4087 24.7414 22.1259ZM24.5293 22.0552C24.3879 22.1966 24.2465 22.2673 24.1052 22.2673C24.1759 22.1966 24.2466 22.1259 24.2466 22.0552C24.2466 21.9845 24.1759 21.9138 24.1052 21.8432C24.3172 21.9138 24.4586 21.9845 24.5293 22.0552ZM23.7517 21.8432C23.681 21.9138 23.681 21.9845 23.681 22.0552C23.681 22.1259 23.7517 22.2673 23.8224 22.2673C23.681 22.2673 23.5397 22.1966 23.3983 22.0552C23.5397 21.9845 23.6103 21.9138 23.7517 21.8432Z" fill="#85340A"/>
<path d="M24.0345 21.5603C23.6104 21.5603 23.5397 21.631 23.3983 21.7724C23.1862 21.9138 23.1155 21.9138 23.1155 21.9138C23.1155 21.9138 23.1155 22.0551 23.1862 21.9844C23.2569 21.9844 23.3983 21.9138 23.5397 21.7724C23.7517 21.631 23.8931 21.631 24.1052 21.631C24.6707 21.631 24.9535 22.0551 25.0242 22.0551C25.0949 22.0551 24.6 21.5603 24.0345 21.5603Z" fill="#85340A"/>
<path d="M22.8328 21.4897C22.7621 21.6311 22.7621 21.7018 22.7621 21.8431C22.6914 22.2673 22.7621 22.7621 23.0448 23.2569C23.0448 23.2569 23.1155 23.1862 23.1862 23.1862C22.9034 22.8328 22.8328 22.4087 22.8328 22.0552C22.8328 21.8431 22.9741 21.7018 23.0448 21.5604C23.5397 21.1363 24.3879 21.2069 25.0948 21.7725C24.4586 20.8535 23.5397 20.9242 22.8328 21.4897Z" fill="#85340A"/>
<path d="M23.5397 22.4086C23.3276 22.2672 23.2569 22.1965 23.1862 22.1965C23.1155 22.1965 23.1155 22.2672 23.3983 22.4086C23.681 22.55 24.2466 22.6207 24.7414 22.1965C24.1759 22.4793 23.7517 22.4793 23.5397 22.4086ZM23.1862 23.5396C23.1155 23.5396 23.0448 23.4689 22.9741 23.3983C22.9741 23.4689 22.8328 23.6103 22.6207 23.6103C22.4086 23.6103 22.2672 23.3983 22.2672 23.3983C22.2672 23.4689 22.1966 23.5396 22.0552 23.5396C21.9845 23.5396 21.8431 23.4689 21.8431 23.3276C21.8431 23.2569 21.9138 23.1862 21.9845 23.1862C21.8431 23.1862 21.7724 23.3276 21.7724 23.4689C21.7724 23.6103 21.9138 23.7517 22.0552 23.7517C22.1259 23.7517 22.1966 23.681 22.2672 23.6103C22.3379 23.681 22.55 23.681 22.6207 23.681H22.6914C22.7621 23.681 22.9035 23.681 23.0448 23.6103C23.1155 23.681 23.1862 23.7517 23.2569 23.7517C23.3983 23.7517 23.5397 23.6103 23.5397 23.4689C23.5397 23.3276 23.469 23.2569 23.3276 23.1862C23.3983 23.1862 23.469 23.2569 23.469 23.3276C23.3983 23.4689 23.3276 23.5396 23.1862 23.5396ZM22.6207 24.1758C22.7621 24.1758 22.9035 24.0345 23.1155 24.1758C23.3276 24.3172 23.469 24.3879 23.6104 24.4586C23.3276 24.2465 23.1862 24.0345 22.9035 24.0345C22.8328 24.0345 22.6914 24.0345 22.6207 24.1052C22.4793 24.0345 22.4086 24.0345 22.3379 24.0345C22.0552 24.0345 21.9138 24.3172 21.631 24.4586C21.7724 24.3879 21.9138 24.2465 22.1259 24.1758C22.3379 24.1052 22.4793 24.1758 22.6207 24.1758Z" fill="#85340A"/>
<path d="M22.6207 24.388C22.4793 24.388 22.4086 24.3173 22.1965 24.388C22.0552 24.388 21.9138 24.388 21.7017 24.4587H21.631C22.2672 24.5294 21.9845 24.8828 22.6207 24.8828C23.2569 24.8828 22.9741 24.5294 23.6103 24.4587H23.469C22.9034 24.2466 22.8328 24.388 22.6207 24.388ZM22.6207 24.7414C22.1259 24.7414 22.2672 24.388 21.7017 24.388C22.2672 24.2466 22.3379 24.4587 22.6207 24.4587C22.8328 24.4587 22.9741 24.3173 23.5396 24.388C22.9741 24.4587 23.1155 24.7414 22.6207 24.7414ZM22.6207 24.8828C22.3379 24.8828 22.0552 25.0949 22.0552 25.4483C22.1259 25.1656 22.3379 25.0242 22.6207 25.0242C22.9034 25.0242 23.1155 25.2362 23.1862 25.4483C23.1862 25.0949 22.9034 24.8828 22.6207 24.8828ZM22.1965 21.5604C22.3379 21.7018 22.4086 21.9138 22.4086 22.0552C22.4793 22.4087 22.3379 22.7621 22.0552 23.1862C22.0552 23.1862 22.1259 23.1863 22.1965 23.2569C22.4086 22.7621 22.55 22.338 22.4793 21.8431C22.4793 21.7018 22.4086 21.6311 22.4086 21.4897C21.7724 20.9242 20.8534 20.8535 20.1465 21.7725C20.8534 21.1362 21.7724 21.0656 22.1965 21.5604Z" fill="#85340A"/>
<path d="M21.7724 21.843C21.9845 21.9844 22.0552 22.0551 22.1259 22.0551C22.1966 22.0551 22.1966 21.9844 22.1966 21.9844C22.1966 21.9844 22.0552 21.9844 21.9138 21.843C21.7017 21.7017 21.631 21.631 21.2776 21.631C20.6414 21.631 20.2879 22.1258 20.3586 22.1258C20.4293 22.1258 20.7121 21.7017 21.2776 21.7017C21.419 21.7017 21.631 21.7017 21.7724 21.843Z" fill="#85340A"/>
<path d="M20.5707 22.1259C20.7121 22.2673 20.9948 22.338 21.2776 22.338C21.4896 22.338 21.7724 22.2673 21.9845 22.1259C21.7724 21.9138 21.4896 21.7725 21.2069 21.7725C20.9948 21.7725 20.7121 21.9138 20.5707 22.1259ZM20.7121 22.1259C20.8534 21.9845 20.9948 21.8432 21.1362 21.8432C21.0655 21.9138 20.9948 21.9845 20.9948 22.0552C20.9948 22.1966 21.0655 22.2673 21.1362 22.2673C20.9948 22.338 20.7827 22.2673 20.7121 22.1259ZM21.7724 22.0552C21.7017 22.1259 21.5603 22.1966 21.419 22.2673C21.4896 22.1966 21.4896 22.1259 21.4896 22.0552C21.4896 21.9845 21.419 21.9138 21.419 21.8432C21.631 21.9138 21.7724 21.9845 21.7724 22.0552Z" fill="#85340A"/>
<path d="M22.1259 22.1965C22.0552 22.1965 21.9845 22.2672 21.7724 22.4086C21.5603 22.55 21.1362 22.55 20.5707 22.2672C21.0655 22.6914 21.631 22.6207 21.9138 22.4793C22.1965 22.2672 22.1965 22.1965 22.1259 22.1965Z" fill="#85340A"/>
</svg>
